<?xml version="1.0" standalone="no"?>
<!DOCTYPE svg PUBLIC "-//W3C//DTD SVG 20010904//EN"
 "http://www.w3.org/TR/2001/REC-SVG-20010904/DTD/svg10.dtd">
<svg version="1.0" xmlns="http://www.w3.org/2000/svg"
 width="320.000000pt" height="320.000000pt" viewBox="0 0 320.000000 320.000000"
 preserveAspectRatio="xMidYMid meet">
<metadata>
Created by potrace 1.14, written by Peter Selinger 2001-2017
</metadata>
<g transform="translate(0.000000,320.000000) scale(0.100000,-0.100000)"
fill="#000000" stroke="none">
<path d="M1635 2988 c-15 -12 -25 -14 -32 -7 -22 22 -86 19 -128 -6 -88 -51
-171 -223 -174 -362 -1 -29 -7 -34 -89 -75 -48 -25 -115 -64 -147 -88 -67 -49
-173 -151 -199 -192 l-18 -28 -30 21 c-62 44 -155 35 -216 -22 -109 -102 -123
-278 -42 -513 l20 -59 -50 -53 c-28 -29 -51 -61 -51 -71 -1 -10 -3 -31 -5 -47
-3 -32 23 -91 54 -120 l21 -18 -29 -37 c-72 -90 -55 -211 31 -211 12 0 21 -9
25 -27 15 -70 68 -216 100 -278 l35 -68 -20 -48 c-81 -188 88 -321 269 -212 3
2 18 -8 33 -21 68 -59 273 -144 387 -161 25 -4 47 -8 51 -11 24 -15 308 -23
407 -12 37 5 64 2 90 -9 79 -33 178 -5 229 65 12 17 49 43 81 59 133 67 243
159 334 281 67 89 130 232 144 322 3 19 7 46 10 60 6 33 5 229 -1 260 -2 14
-10 48 -16 75 -6 28 -14 113 -19 190 -9 144 -11 155 -35 265 -88 398 -310 646
-674 755 l-76 22 -7 99 c-6 100 -22 159 -55 211 -53 82 -151 116 -208 71z"/>
</g>
</svg>
